<!DOCTYPE svg PUBLIC "-//W3C//DTD SVG 1.1//EN" "http://www.w3.org/Graphics/SVG/1.1/DTD/svg11.dtd">

<!-- Uploaded to: SVG Repo, www.svgrepo.com, Transformed by: SVG Repo Mixer Tools -->
<svg width="800px" height="800px" viewBox="0 0 24 24" xmlns="http://www.w3.org/2000/svg" id="down-sign" class="icon glyph" fill="#000000">

<g id="SVGRepo_bgCarrier" stroke-width="0"/>

<g id="SVGRepo_tracerCarrier" stroke-linecap="round" stroke-linejoin="round"/>

<g id="SVGRepo_iconCarrier">

<path d="M21.51,4.14a1,1,0,0,0-1,0L12,8.86,3.49,4.13a1,1,0,0,0-1,0A1,1,0,0,0,2,5v9a1,1,0,0,0,.51.87l9,5,.15.06.09,0A1,1,0,0,0,12,20h0a1,1,0,0,0,.25,0l.09,0,.15-.06,9-5A1,1,0,0,0,22,14V5A1,1,0,0,0,21.51,4.14Z" style="fill:#ffffff"/>

</g>

</svg>